<svg xmlns="http://www.w3.org/2000/svg" version="1.0" width="500.000000pt" height="500.000000pt" viewBox="0 0 500.000000 500.000000" preserveAspectRatio="xMidYMid meet">

<g transform="translate(0.000000,500.000000) scale(0.100000,-0.100000)" fill="#2A363B" stroke="none">
<path d="M2345 4844 c-433 -43 -759 -146 -1099 -348 -404 -240 -755 -656 -929 -1102 -73 -187 -110 -327 -148 -555 -29 -174 -31 -492 -5 -674 97 -688 451 -1267 1006 -1647 401 -275 814 -398 1335 -398 464 0 843 103 1237 338 138 82 289 202 429 341 272 272 450 563 572 937 186 568 168 1156 -50 1684 -190 460 -523 845 -940 1088 -379 221 -759 329 -1188 337 -99 1 -198 1 -220 -1z m337 -234 c997 -73 1789 -801 1945 -1786 21 -133 23 -426 4 -564 -69 -509 -265 -920 -605 -1269 -185 -189 -346 -307 -583 -425 -519 -261 -1107 -295 -1666 -96 -500 179 -930 558 -1173 1036 -218 430 -289 954 -193 1434 62 307 240 677 439 910 297 346 652 573 1080 690 248 68 485 90 752 70z" fill="#2A363B"/>
<path d="M2378 3535 c-56 -30 -122 -103 -187 -210 -173 -281 -352 -554 -391 -594 -25 -25 -88 -72 -140 -103 -92 -54 -446 -302 -483 -337 -14 -13 -17 -30 -15 -65 l3 -47 100 52 c55 29 168 98 250 154 83 56 184 121 225 144 41 23 99 66 128 94 58 56 180 234 336 492 183 300 229 340 334 286 52 -27 198 -175 350 -353 230 -272 341 -359 527 -413 100 -29 312 -45 375 -28 31 8 35 14 38 44 l3 35 -118 11 c-300 29 -500 156 -766 489 -113 142 -156 186 -256 266 -140 112 -218 132 -313 83z" fill="#2A363B"/>
<path d="M3617 3405 c-18 -18 -13 -40 11 -50 23 -9 49 21 36 42 -15 24 -29 26 -47 8z" fill="#2A363B"/>
<path d="M1160 1485 c0 -13 155 -15 1335 -15 1180 0 1335 2 1335 15 0 13 -155 15 -1335 15 -1180 0 -1335 -2 -1335 -15z" fill="#2A363B"/>
</g>
</svg>